<?xml version="1.0" encoding="UTF-8" standalone="no"?>
<!DOCTYPE svg PUBLIC "-//W3C//DTD SVG 1.1//EN"
 "http://www.w3.org/Graphics/SVG/1.1/DTD/svg11.dtd">
<!-- Generated by graphviz version 2.43.0 (0)
 -->
<!-- Title: tomgraph Pages: 1 -->
<svg width="557pt" height="243pt"
 viewBox="0.00 0.00 556.74 243.48" xmlns="http://www.w3.org/2000/svg" xmlns:xlink="http://www.w3.org/1999/xlink">
<g id="graph0" class="graph" transform="scale(1 1) rotate(0) translate(4 239.48)">
<title>tomgraph</title>
<polygon fill="#eeeeee" stroke="transparent" points="-4,4 -4,-239.48 552.74,-239.48 552.74,4 -4,4"/>
<text text-anchor="middle" x="274.37" y="-22.8" font-family="Times,serif" font-size="14.00">Том Cойер нанял три Финнов и каждый слышит с ошибкой 0.1</text>
<text text-anchor="middle" x="274.37" y="-7.8" font-family="Times,serif" font-size="14.00">Вместе они набрали ошибку 1.9374</text>
<!-- 0.333333 -->
<g id="node1" class="node">
<title>0.333333</title>
<ellipse fill="#003f00" stroke="#373a40" cx="274.37" cy="-217.48" rx="18" ry="18"/>
<text text-anchor="middle" x="274.37" y="-214.98" font-family="Helvetica,sans-Serif" font-size="10.00" fill="#eeeeee">0</text>
</g>
<!-- 0.3111286296322043 -->
<g id="node2" class="node">
<title>0.3111286296322043</title>
<ellipse fill="#083f00" stroke="#373a40" cx="117.37" cy="-141.11" rx="22.24" ry="22.24"/>
<text text-anchor="middle" x="117.37" y="-138.61" font-family="Helvetica,sans-Serif" font-size="10.00" fill="#eeeeee">0.07</text>
</g>
<!-- 0.333333&#45;&gt;0.3111286296322043 -->
<g id="edge1" class="edge">
<title>0.333333&#45;&gt;0.3111286296322043</title>
<path fill="none" stroke="#373a40" d="M258.45,-208.94C232.2,-196.5 179.45,-171.51 146.41,-155.86"/>
<polygon fill="#373a40" stroke="#373a40" points="147.79,-152.64 137.25,-151.52 144.79,-158.97 147.79,-152.64"/>
</g>
<!-- 0.43322739629367635 -->
<g id="node6" class="node">
<title>0.43322739629367635</title>
<ellipse fill="#003f26" stroke="#373a40" cx="274.37" cy="-141.11" rx="22.24" ry="22.24"/>
<text text-anchor="middle" x="274.37" y="-138.61" font-family="Helvetica,sans-Serif" font-size="10.00" fill="#eeeeee">0.30</text>
</g>
<!-- 0.333333&#45;&gt;0.43322739629367635 -->
<g id="edge5" class="edge">
<title>0.333333&#45;&gt;0.43322739629367635</title>
<path fill="none" stroke="#373a40" d="M274.37,-199.23C274.37,-191.58 274.37,-182.33 274.37,-173.53"/>
<polygon fill="#373a40" stroke="#373a40" points="277.87,-173.52 274.37,-163.52 270.87,-173.52 277.87,-173.52"/>
</g>
<!-- 0.32341160850872214 -->
<g id="node10" class="node">
<title>0.32341160850872214</title>
<ellipse fill="#033f00" stroke="#373a40" cx="431.37" cy="-141.11" rx="22.24" ry="22.24"/>
<text text-anchor="middle" x="431.37" y="-138.61" font-family="Helvetica,sans-Serif" font-size="10.00" fill="#eeeeee">0.03</text>
</g>
<!-- 0.333333&#45;&gt;0.32341160850872214 -->
<g id="edge9" class="edge">
<title>0.333333&#45;&gt;0.32341160850872214</title>
<path fill="none" stroke="#373a40" d="M290.29,-208.94C316.54,-196.5 369.29,-171.51 402.33,-155.86"/>
<polygon fill="#373a40" stroke="#373a40" points="403.95,-158.97 411.49,-151.52 400.95,-152.64 403.95,-158.97"/>
</g>
<!-- 0.24110159936322423 -->
<g id="node3" class="node">
<title>0.24110159936322423</title>
<ellipse fill="#233f00" stroke="#373a40" cx="22.37" cy="-60.37" rx="22.24" ry="22.24"/>
<text text-anchor="middle" x="22.37" y="-57.87" font-family="Helvetica,sans-Serif" font-size="10.00" fill="#eeeeee">0.28</text>
</g>
<!-- 0.3111286296322043&#45;&gt;0.24110159936322423 -->
<g id="edge2" class="edge">
<title>0.3111286296322043&#45;&gt;0.24110159936322423</title>
<path fill="none" stroke="#373a40" d="M100.39,-126.03C85.52,-113.71 63.75,-95.67 46.98,-81.77"/>
<polygon fill="#373a40" stroke="#373a40" points="49.14,-79.01 39.21,-75.32 44.67,-84.4 49.14,-79.01"/>
</g>
<!-- 0.37345371477845646 -->
<g id="node4" class="node">
<title>0.37345371477845646</title>
<ellipse fill="#003f0f" stroke="#373a40" cx="85.37" cy="-60.37" rx="22.24" ry="22.24"/>
<text text-anchor="middle" x="85.37" y="-57.87" font-family="Helvetica,sans-Serif" font-size="10.00" fill="#eeeeee">0.12</text>
</g>
<!-- 0.3111286296322043&#45;&gt;0.37345371477845646 -->
<g id="edge3" class="edge">
<title>0.3111286296322043&#45;&gt;0.37345371477845646</title>
<path fill="none" stroke="#373a40" d="M109.29,-120.24C105.66,-111.29 101.29,-100.53 97.28,-90.68"/>
<polygon fill="#373a40" stroke="#373a40" points="100.45,-89.18 93.44,-81.23 93.96,-91.81 100.45,-89.18"/>
</g>
<!-- 0.33050584794378524 -->
<g id="node5" class="node">
<title>0.33050584794378524</title>
<ellipse fill="#013f00" stroke="#373a40" cx="148.37" cy="-60.37" rx="22.24" ry="22.24"/>
<text text-anchor="middle" x="148.37" y="-57.87" font-family="Helvetica,sans-Serif" font-size="10.00" fill="#eeeeee">0.01</text>
</g>
<!-- 0.3111286296322043&#45;&gt;0.33050584794378524 -->
<g id="edge4" class="edge">
<title>0.3111286296322043&#45;&gt;0.33050584794378524</title>
<path fill="none" stroke="#373a40" d="M125.35,-119.83C128.79,-111.11 132.87,-100.73 136.64,-91.16"/>
<polygon fill="#373a40" stroke="#373a40" points="140.01,-92.16 140.41,-81.58 133.49,-89.6 140.01,-92.16"/>
</g>
<!-- 0.4974975757638861 -->
<g id="node7" class="node">
<title>0.4974975757638861</title>
<ellipse fill="#003f3e" stroke="#373a40" cx="211.37" cy="-60.37" rx="22.24" ry="22.24"/>
<text text-anchor="middle" x="211.37" y="-57.87" font-family="Helvetica,sans-Serif" font-size="10.00" fill="#eeeeee">0.49</text>
</g>
<!-- 0.43322739629367635&#45;&gt;0.4974975757638861 -->
<g id="edge6" class="edge">
<title>0.43322739629367635&#45;&gt;0.4974975757638861</title>
<path fill="none" stroke="#373a40" d="M260.7,-123.02C252.11,-112.29 240.89,-98.27 231.32,-86.31"/>
<polygon fill="#373a40" stroke="#373a40" points="233.99,-84.04 225.01,-78.42 228.53,-88.42 233.99,-84.04"/>
</g>
<!-- 0.4914609173402237 -->
<g id="node8" class="node">
<title>0.4914609173402237</title>
<ellipse fill="#003f3c" stroke="#373a40" cx="274.37" cy="-60.37" rx="22.24" ry="22.24"/>
<text text-anchor="middle" x="274.37" y="-57.87" font-family="Helvetica,sans-Serif" font-size="10.00" fill="#eeeeee">0.47</text>
</g>
<!-- 0.43322739629367635&#45;&gt;0.4914609173402237 -->
<g id="edge7" class="edge">
<title>0.43322739629367635&#45;&gt;0.4914609173402237</title>
<path fill="none" stroke="#373a40" d="M274.37,-118.59C274.37,-110.69 274.37,-101.58 274.37,-92.98"/>
<polygon fill="#373a40" stroke="#373a40" points="277.87,-92.86 274.37,-82.86 270.87,-92.86 277.87,-92.86"/>
</g>
<!-- 0.3518198506941653 -->
<g id="node9" class="node">
<title>0.3518198506941653</title>
<ellipse fill="#003f07" stroke="#373a40" cx="337.37" cy="-60.37" rx="22.24" ry="22.24"/>
<text text-anchor="middle" x="337.37" y="-57.87" font-family="Helvetica,sans-Serif" font-size="10.00" fill="#eeeeee">0.06</text>
</g>
<!-- 0.43322739629367635&#45;&gt;0.3518198506941653 -->
<g id="edge8" class="edge">
<title>0.43322739629367635&#45;&gt;0.3518198506941653</title>
<path fill="none" stroke="#373a40" d="M288.04,-123.02C296.63,-112.29 307.85,-98.27 317.42,-86.31"/>
<polygon fill="#373a40" stroke="#373a40" points="320.21,-88.42 323.73,-78.42 314.75,-84.04 320.21,-88.42"/>
</g>
<!-- 0.23498126143029863 -->
<g id="node11" class="node">
<title>0.23498126143029863</title>
<ellipse fill="#253f00" stroke="#373a40" cx="400.37" cy="-60.37" rx="22.24" ry="22.24"/>
<text text-anchor="middle" x="400.37" y="-57.87" font-family="Helvetica,sans-Serif" font-size="10.00" fill="#eeeeee">0.30</text>
</g>
<!-- 0.32341160850872214&#45;&gt;0.23498126143029863 -->
<g id="edge10" class="edge">
<title>0.32341160850872214&#45;&gt;0.23498126143029863</title>
<path fill="none" stroke="#373a40" d="M423.39,-119.83C419.95,-111.11 415.87,-100.73 412.1,-91.16"/>
<polygon fill="#373a40" stroke="#373a40" points="415.25,-89.6 408.33,-81.58 408.73,-92.16 415.25,-89.6"/>
</g>
<!-- 0.2703608581645066 -->
<g id="node12" class="node">
<title>0.2703608581645066</title>
<ellipse fill="#183f00" stroke="#373a40" cx="463.37" cy="-60.37" rx="22.24" ry="22.24"/>
<text text-anchor="middle" x="463.37" y="-57.87" font-family="Helvetica,sans-Serif" font-size="10.00" fill="#eeeeee">0.19</text>
</g>
<!-- 0.32341160850872214&#45;&gt;0.2703608581645066 -->
<g id="edge11" class="edge">
<title>0.32341160850872214&#45;&gt;0.2703608581645066</title>
<path fill="none" stroke="#373a40" d="M439.44,-120.24C443.08,-111.29 447.45,-100.53 451.46,-90.68"/>
<polygon fill="#373a40" stroke="#373a40" points="454.77,-91.81 455.3,-81.23 448.29,-89.18 454.77,-91.81"/>
</g>
<!-- 0.32482332543757086 -->
<g id="node13" class="node">
<title>0.32482332543757086</title>
<ellipse fill="#033f00" stroke="#373a40" cx="526.37" cy="-60.37" rx="22.24" ry="22.24"/>
<text text-anchor="middle" x="526.37" y="-57.87" font-family="Helvetica,sans-Serif" font-size="10.00" fill="#eeeeee">0.03</text>
</g>
<!-- 0.32341160850872214&#45;&gt;0.32482332543757086 -->
<g id="edge12" class="edge">
<title>0.32341160850872214&#45;&gt;0.32482332543757086</title>
<path fill="none" stroke="#373a40" d="M448.35,-126.03C463.21,-113.71 484.98,-95.67 501.75,-81.77"/>
<polygon fill="#373a40" stroke="#373a40" points="504.07,-84.4 509.53,-75.32 499.6,-79.01 504.07,-84.4"/>
</g>
</g>
</svg>
